<svg xmlns="http://www.w3.org/2000/svg" viewBox="0 0 48 48">
  <g transform="translate(0,48) scale(0.1,-0.1)" fill="#000">
    <path d="M89 421 c-10 -32 -18 -40 -50 -50 -22 -7 -39 -16 -39 -21 0 -5 17 -14 39 -21 32 -10 40 -18 50 -50 15 -49 27 -49 42 0 10 32 18 40 50 50 22 7 39 16 39 21 0 5 -17 14 -39 21 -32 10 -40 18 -50 50 -7 22 -16 39 -21 39 -5 0 -14 -17 -21 -39z"/>
    <path d="M278 322 c-23 -55 -29 -60 -81 -81 -32 -13 -57 -27 -57 -31 0 -3 26 -18 58 -32 55 -23 60 -29 81 -81 13 -32 27 -57 31 -57 4 0 18 25 31 57 21 52 26 58 81 81 32 14 58 28 58 32 0 4 -26 18 -58 32 -55 23 -60 29 -81 81 -13 32 -27 57 -31 57 -3 0 -18 -26 -32 -58z"/>
    <path d="M94 136 c-3 -15 -15 -27 -30 -30 -13 -4 -24 -11 -24 -16 0 -5 11 -12 24 -16 15 -3 27 -15 30 -30 4 -13 11 -24 16 -24 5 0 12 11 16 24 3 15 15 27 30 30 31 8 31 24 0 32 -15 3 -27 15 -30 30 -4 13 -11 24 -16 24 -5 0 -12 -11 -16 -24z"/>
  </g>
</svg>