<svg width="18" height="18" viewBox="0 0 18 18" fill="none" xmlns="http://www.w3.org/2000/svg">
  <mask id="path-1-inside-1_2248_5336" fill="white">
    <path fill-rule="evenodd" clip-rule="evenodd" d="M6.13131 11.6591C6.13131 11.29 5.92374 10.9565 5.61714 10.7509C3.55248 9.36637 2.51327 6.7981 3.22191 4.30392C4.11167 1.17233 7.41989 -0.656586 10.611 0.218929C13.8022 1.09444 15.6678 4.34285 14.7781 7.47444C14.4359 8.67883 13.736 9.69054 12.8226 10.4298C12.5637 10.6393 12.3941 10.9459 12.3941 11.279V12.3715C12.3941 12.9238 11.9464 13.3715 11.3941 13.3715H7.13131C6.57902 13.3715 6.13131 12.9238 6.13131 12.3715V11.6591Z"/>
  </mask>
  <path d="M3.22191 4.30392L1.29806 3.75732L3.22191 4.30392ZM10.611 0.218929L11.1402 -1.7098V-1.7098L10.611 0.218929ZM14.7781 7.47444L12.8542 6.92784V6.92784L14.7781 7.47444ZM5.61714 10.7509L4.50324 12.412L5.61714 10.7509ZM6.73103 9.08979C5.35207 8.16508 4.68502 6.4722 5.14577 4.85053L1.29806 3.75732C0.341517 7.12399 1.75289 10.5677 4.50324 12.412L6.73103 9.08979ZM5.14577 4.85053C5.72731 2.80372 7.91974 1.55446 10.0819 2.14766L11.1402 -1.7098C6.92003 -2.86763 2.49602 -0.45906 1.29806 3.75732L5.14577 4.85053ZM10.0819 2.14766C12.2312 2.73733 13.4317 4.89543 12.8542 6.92784L16.7019 8.02105C17.904 3.79027 15.3732 -0.548443 11.1402 -1.7098L10.0819 2.14766ZM12.8542 6.92784C12.6295 7.71895 12.171 8.38416 11.5643 8.87523L14.0808 11.9844C15.3009 10.9969 16.2423 9.63871 16.7019 8.02105L12.8542 6.92784ZM10.3941 11.279V12.3715H14.3941V11.279H10.3941ZM11.3941 11.3715H7.13131V15.3715H11.3941V11.3715ZM8.13131 12.3715V11.6591H4.13131V12.3715H8.13131ZM7.13131 11.3715C7.6836 11.3715 8.13131 11.8192 8.13131 12.3715H4.13131C4.13131 14.0283 5.47445 15.3715 7.13131 15.3715V11.3715ZM11.5643 8.87523C10.9131 9.40235 10.3941 10.2501 10.3941 11.279H14.3941C14.3941 11.6418 14.2144 11.8763 14.0808 11.9844L11.5643 8.87523ZM10.3941 12.3715C10.3941 11.8192 10.8419 11.3715 11.3941 11.3715V15.3715C13.051 15.3715 14.3941 14.0283 14.3941 12.3715H10.3941ZM4.50324 12.412C4.35065 12.3097 4.13131 12.0632 4.13131 11.6591H8.13131C8.13131 10.5168 7.49683 9.60331 6.73103 9.08979L4.50324 12.412Z" fill="#34D399" mask="url(#path-1-inside-1_2248_5336)"/>
  <rect x="6.51657" y="14.7856" width="5.4914" height="0.771429" rx="0.385714" fill="#34D399" stroke="#34D399" stroke-width="0.771429"/>
  <rect x="7.55954" y="16.8427" width="3.40379" height="0.771429" rx="0.385714" fill="#34D399" stroke="#34D399" stroke-width="0.771429"/>
</svg>