<svg width="18" height="18" viewBox="0 0 18 18" fill="none" xmlns="http://www.w3.org/2000/svg">
  <path fill-rule="evenodd" clip-rule="evenodd" d="M15.6918 13.1931L9.94797 2.74773C9.53528 1.99725 8.46471 1.99726 8.05204 2.74772L2.3082 13.1931C1.90782 13.9212 2.43024 14.8151 3.25617 14.8151H14.7438C15.5698 14.8151 16.0922 13.9212 15.6918 13.1931ZM11.8439 1.68856C10.6059 -0.562847 7.39414 -0.562855 6.15611 1.68855L0.412277 12.1339C-0.788892 14.3183 0.778378 17 3.25617 17H14.7438C17.2216 17 18.7889 14.3183 17.5877 12.1339L11.8439 1.68856Z" fill="#FBBF24"/>
  <path d="M8 6.24907C8 5.58107 8.44772 5.03955 9 5.03955C9.55228 5.03955 10 5.58107 10 6.24907V9.87764C10 10.5456 9.55228 11.0872 9 11.0872C8.44772 11.0872 8 10.5456 8 9.87764V6.24907Z" fill="#FBBF24"/>
  <path d="M7.98047 12.9127C7.98047 12.3561 8.42818 11.9048 8.98047 11.9048C9.53275 11.9048 9.98047 12.3561 9.98047 12.9127C9.98047 13.4694 9.53275 13.9207 8.98047 13.9207C8.42818 13.9207 7.98047 13.4694 7.98047 12.9127Z" fill="#FBBF24"/>
</svg>
